<?xml version="1.0" encoding="UTF-8"?>
<svg xmlns="http://www.w3.org/2000/svg" xmlns:xlink="http://www.w3.org/1999/xlink" width="40px" height="40px" viewBox="0 0 40 40" version="1.1">
<g id="surface1">
<path style=" stroke:none;fill-rule:nonzero;fill:rgb(3.921569%,81.176472%,51.372552%);fill-opacity:1;" d="M 13.339844 40 C 17.019531 40 20.003906 37.015625 20.003906 33.332031 L 20.003906 26.667969 L 13.339844 26.667969 C 9.65625 26.667969 6.671875 29.652344 6.671875 33.332031 C 6.671875 37.015625 9.65625 40 13.339844 40 Z M 13.339844 40 "/>
<path style=" stroke:none;fill-rule:nonzero;fill:rgb(63.529414%,34.901962%,100%);fill-opacity:1;" d="M 6.671875 20 C 6.671875 16.316406 9.65625 13.332031 13.339844 13.332031 L 20.003906 13.332031 L 20.003906 26.667969 L 13.339844 26.667969 C 9.65625 26.667969 6.671875 23.683594 6.671875 20 Z M 6.671875 20 "/>
<path style=" stroke:none;fill-rule:nonzero;fill:rgb(94.901961%,30.588236%,11.764706%);fill-opacity:1;" d="M 6.671875 6.667969 C 6.671875 2.988281 9.652344 0.00390625 13.332031 0 L 20 0 L 20 13.332031 L 13.339844 13.332031 C 9.65625 13.332031 6.671875 10.347656 6.671875 6.667969 Z M 6.671875 6.667969 "/>
<path style=" stroke:none;fill-rule:nonzero;fill:rgb(100%,44.705883%,38.431373%);fill-opacity:1;" d="M 20.003906 0 L 26.671875 0 C 30.355469 0 33.339844 2.984375 33.339844 6.667969 C 33.339844 10.347656 30.355469 13.332031 26.671875 13.332031 L 20.003906 13.332031 Z M 20.003906 0 "/>
<path style=" stroke:none;fill-rule:nonzero;fill:rgb(10.196079%,73.725492%,99.607843%);fill-opacity:1;" d="M 33.339844 20 C 33.339844 23.683594 30.355469 26.667969 26.671875 26.667969 C 22.988281 26.667969 20.003906 23.683594 20.003906 20 C 20.003906 16.316406 22.988281 13.332031 26.671875 13.332031 C 30.355469 13.332031 33.339844 16.316406 33.339844 20 Z M 33.339844 20 "/>
</g>
</svg>
