<?xml version="1.0" encoding="UTF-8"?>
<svg xmlns="http://www.w3.org/2000/svg" xmlns:xlink="http://www.w3.org/1999/xlink" width="40px" height="40px" viewBox="0 0 40 40" version="1.1">
<defs>
<filter id="alpha" filterUnits="objectBoundingBox" x="0%" y="0%" width="100%" height="100%">
  <feColorMatrix type="matrix" in="SourceGraphic" values="0 0 0 0 1 0 0 0 0 1 0 0 0 0 1 0 0 0 1 0"/>
</filter>
<mask id="mask0">
  <g filter="url(#alpha)">
<rect x="0" y="0" width="40" height="40" style="fill:rgb(0%,0%,0%);fill-opacity:0.2;stroke:none;"/>
  </g>
</mask>
<clipPath id="clip1">
  <rect x="0" y="0" width="40" height="40"/>
</clipPath>
<g id="surface5" clip-path="url(#clip1)">
<path style=" stroke:none;fill-rule:nonzero;fill:rgb(100%,100%,100%);fill-opacity:1;" d="M 12.1875 16.550781 C 13.207031 14.570312 14.167969 12.699219 14.167969 10.417969 C 14.167969 2.117188 16.5 0.417969 20 0.417969 C 21.6875 0.417969 23.089844 0.964844 24.164062 2.046875 C 26.386719 4.285156 26.648438 8.222656 26.667969 10.714844 C 26.671875 8.269531 26.523438 4.003906 24.164062 1.632812 C 23.089844 0.550781 21.6875 0 20 0 C 16.5 0 14.167969 1.699219 14.167969 10 C 14.167969 12.285156 13.207031 14.15625 12.1875 16.136719 C 11.742188 17.003906 11.28125 17.902344 10.894531 18.851562 C 10.125 20.746094 8.332031 25.378906 8.332031 27.5 C 8.332031 27.539062 8.355469 27.570312 8.359375 27.609375 C 8.5 25.382812 10.15625 21.082031 10.894531 19.269531 C 11.28125 18.320312 11.742188 17.421875 12.1875 16.550781 Z M 12.1875 16.550781 "/>
</g>
<mask id="mask1">
  <g filter="url(#alpha)">
<rect x="0" y="0" width="40" height="40" style="fill:rgb(0%,0%,0%);fill-opacity:0.2;stroke:none;"/>
  </g>
</mask>
<clipPath id="clip2">
  <rect x="0" y="0" width="40" height="40"/>
</clipPath>
<g id="surface8" clip-path="url(#clip2)">
<path style=" stroke:none;fill-rule:nonzero;fill:rgb(100%,100%,100%);fill-opacity:1;" d="M 26.667969 12.082031 C 26.667969 13.320312 27.625 14.523438 28.839844 16.042969 C 30.820312 18.527344 33.28125 21.621094 33.324219 26.941406 C 33.328125 26.847656 33.332031 26.765625 33.332031 26.667969 C 33.332031 21.253906 30.839844 18.132812 28.839844 15.625 C 27.628906 14.109375 26.671875 12.910156 26.667969 11.675781 C 26.667969 11.679688 26.667969 11.6875 26.667969 11.695312 Z M 26.667969 12.082031 "/>
</g>
<mask id="mask2">
  <g filter="url(#alpha)">
<rect x="0" y="0" width="40" height="40" style="fill:rgb(0%,0%,0%);fill-opacity:0.1;stroke:none;"/>
  </g>
</mask>
<clipPath id="clip3">
  <rect x="0" y="0" width="40" height="40"/>
</clipPath>
<g id="surface11" clip-path="url(#clip3)">
<path style=" stroke:none;fill-rule:nonzero;fill:rgb(0%,0%,0%);fill-opacity:1;" d="M 16.296875 36.542969 C 16.867188 36.601562 17.585938 36.652344 18.40625 36.652344 C 20.441406 36.652344 23.195312 36.238281 25.234375 35 L 25.234375 34.582031 C 23.195312 35.820312 20.441406 36.234375 18.40625 36.234375 C 17.585938 36.234375 16.742188 36.175781 16.167969 36.121094 "/>
</g>
<mask id="mask3">
  <g filter="url(#alpha)">
<rect x="0" y="0" width="40" height="40" style="fill:rgb(0%,0%,0%);fill-opacity:0.3;stroke:none;"/>
  </g>
</mask>
<clipPath id="clip4">
  <rect x="0" y="0" width="40" height="40"/>
</clipPath>
<g id="surface14" clip-path="url(#clip4)">
<path style=" stroke:none;fill-rule:nonzero;fill:rgb(0%,0%,0%);fill-opacity:1;" d="M 26.238281 37.679688 C 26.085938 37.832031 25.875 37.917969 25.660156 37.917969 L 20.003906 37.917969 C 18.523438 37.917969 16.070312 38.464844 15.699219 38.875 C 15.539062 39.054688 15.308594 39.160156 15.070312 39.160156 C 15.039062 39.160156 15.003906 39.15625 14.972656 39.152344 C 14.699219 39.117188 14.460938 38.960938 14.332031 38.71875 L 8.433594 27.472656 C 8.390625 27.382812 8.378906 27.289062 8.367188 27.191406 C 8.359375 27.292969 8.339844 27.410156 8.339844 27.5 C 8.339844 27.636719 8.371094 27.769531 8.433594 27.886719 L 14.332031 39.136719 C 14.460938 39.375 14.699219 39.535156 14.972656 39.570312 C 15.003906 39.574219 15.039062 39.574219 15.070312 39.574219 C 15.308594 39.574219 15.539062 39.472656 15.699219 39.292969 C 16.070312 38.878906 18.523438 38.332031 20.003906 38.332031 L 25.660156 38.332031 C 25.875 38.332031 26.085938 38.25 26.238281 38.097656 L 33.085938 31.429688 C 33.308594 31.210938 33.371094 30.902344 33.296875 30.621094 C 33.261719 30.765625 33.199219 30.902344 33.085938 31.015625 Z M 26.238281 37.679688 "/>
</g>
<mask id="mask4">
  <g filter="url(#alpha)">
<rect x="0" y="0" width="40" height="40" style="fill:rgb(0%,0%,0%);fill-opacity:0.2;stroke:none;"/>
  </g>
</mask>
<clipPath id="clip5">
  <rect x="0" y="0" width="40" height="40"/>
</clipPath>
<g id="surface17" clip-path="url(#clip5)">
<path style=" stroke:none;fill-rule:nonzero;fill:rgb(100%,100%,100%);fill-opacity:1;" d="M 5.921875 30.023438 C 6.238281 29.960938 6.722656 29.871094 6.851562 29.792969 C 6.855469 29.757812 6.9375 29.445312 6.988281 29.238281 C 7.175781 28.484375 7.53125 27.082031 9.144531 27.082031 C 10.421875 27.082031 11.085938 28.425781 11.855469 29.984375 C 12.4375 31.160156 13.097656 32.496094 13.945312 33.066406 C 14.792969 33.636719 15.417969 34.339844 15.847656 35.082031 C 15.4375 34.1875 14.777344 33.324219 13.808594 32.648438 C 12.988281 32.078125 12.351562 30.742188 11.789062 29.566406 C 11.042969 28.011719 10.402344 26.667969 9.167969 26.667969 C 7.605469 26.667969 7.265625 28.066406 7.085938 28.820312 C 7.035156 29.027344 6.957031 29.339844 6.949219 29.378906 C 6.824219 29.453125 6.359375 29.546875 6.054688 29.605469 C 5.167969 29.78125 3.773438 30.0625 3.417969 31.128906 C 3.972656 30.398438 5.140625 30.171875 5.921875 30.023438 Z M 5.921875 30.023438 "/>
</g>
<mask id="mask5">
  <g filter="url(#alpha)">
<rect x="0" y="0" width="40" height="40" style="fill:rgb(0%,0%,0%);fill-opacity:0.3;stroke:none;"/>
  </g>
</mask>
<clipPath id="clip6">
  <rect x="0" y="0" width="40" height="40"/>
</clipPath>
<g id="surface20" clip-path="url(#clip6)">
<path style=" stroke:none;fill-rule:nonzero;fill:rgb(0%,0%,0%);fill-opacity:1;" d="M 32.226562 30.476562 C 31.507812 31.1875 30.589844 31.253906 29.746094 31.253906 C 29.648438 31.253906 29.554688 31.253906 29.460938 31.25 L 29.167969 31.25 C 28.503906 31.25 27.925781 31.011719 27.496094 30.554688 C 26.824219 29.84375 26.6875 28.792969 26.667969 28.234375 C 26.667969 28.25 26.667969 28.269531 26.667969 28.285156 C 26.660156 28.460938 26.597656 30.023438 27.496094 30.972656 C 27.925781 31.425781 28.503906 31.667969 29.167969 31.667969 L 29.460938 31.667969 C 29.554688 31.667969 29.648438 31.671875 29.746094 31.671875 C 30.589844 31.671875 31.507812 31.605469 32.226562 30.894531 C 32.992188 30.132812 33.332031 28.832031 33.332031 26.667969 C 33.332031 26.640625 33.320312 26.617188 33.316406 26.589844 C 33.28125 28.535156 32.945312 29.761719 32.226562 30.476562 Z M 32.226562 30.476562 "/>
</g>
<linearGradient id="linear0" gradientUnits="userSpaceOnUse" x1="10.383499" y1="6.809738" x2="17.165054" y2="13.591293" gradientTransform="matrix(1.666667,0,0,1.666667,0,0)">
<stop offset="0" style="stop-color:rgb(0%,0%,0%);stop-opacity:0.1;"/>
<stop offset="1" style="stop-color:rgb(0%,0%,0%);stop-opacity:0;"/>
</linearGradient>
<mask id="mask6">
  <g filter="url(#alpha)">
<rect x="0" y="0" width="40" height="40" style="fill:rgb(0%,0%,0%);fill-opacity:0.1;stroke:none;"/>
  </g>
</mask>
<clipPath id="clip7">
  <rect x="0" y="0" width="40" height="40"/>
</clipPath>
<g id="surface23" clip-path="url(#clip7)">
<path style=" stroke:none;fill-rule:nonzero;fill:rgb(0%,0%,0%);fill-opacity:1;" d="M 34.234375 35.847656 C 33.503906 36.117188 32.679688 36.417969 32.257812 36.839844 C 32.070312 37.023438 31.898438 37.207031 31.726562 37.390625 C 30.710938 38.46875 29.664062 39.582031 27.5 39.582031 C 26.675781 39.582031 26.03125 39.332031 25.582031 38.839844 C 25.09375 38.300781 24.984375 37.632812 24.96875 37.082031 C 24.933594 37.65625 24.953125 38.566406 25.582031 39.253906 C 26.03125 39.75 26.675781 40 27.5 40 C 29.664062 40 30.710938 38.886719 31.726562 37.808594 C 31.898438 37.625 32.070312 37.441406 32.253906 37.253906 C 32.679688 36.832031 33.503906 36.53125 34.234375 36.265625 C 35.429688 35.828125 36.667969 35.378906 36.667969 34.167969 C 36.667969 34.105469 36.636719 34.0625 36.632812 34.003906 C 36.464844 35.019531 35.339844 35.445312 34.234375 35.847656 Z M 34.234375 35.847656 "/>
</g>
<mask id="mask7">
  <g filter="url(#alpha)">
<rect x="0" y="0" width="40" height="40" style="fill:rgb(0%,0%,0%);fill-opacity:0.1;stroke:none;"/>
  </g>
</mask>
<clipPath id="clip8">
  <rect x="0" y="0" width="40" height="40"/>
</clipPath>
<g id="surface26" clip-path="url(#clip8)">
<path style=" stroke:none;fill-rule:nonzero;fill:rgb(0%,0%,0%);fill-opacity:1;" d="M 16.203125 37.9375 C 15.878906 38.96875 15.117188 39.582031 14.167969 39.582031 C 12.84375 39.582031 11.460938 38.945312 10.347656 38.433594 C 9.828125 38.195312 9.292969 37.945312 9.035156 37.90625 C 8.871094 37.878906 8.613281 37.859375 8.304688 37.835938 C 6.503906 37.683594 3.554688 37.421875 3.367188 35.585938 C 3.363281 35.601562 3.363281 35.609375 3.359375 35.625 C 3.34375 35.691406 3.332031 35.761719 3.332031 35.832031 C 3.332031 37.835938 6.445312 38.097656 8.304688 38.25 C 8.613281 38.277344 8.871094 38.296875 9.035156 38.324219 C 9.292969 38.363281 9.828125 38.609375 10.347656 38.851562 C 11.460938 39.363281 12.84375 40 14.167969 40 C 15.117188 40 15.878906 39.386719 16.203125 38.355469 C 16.335938 37.933594 16.382812 37.449219 16.347656 36.933594 C 16.339844 37.292969 16.300781 37.636719 16.203125 37.9375 Z M 16.203125 37.9375 "/>
</g>
<mask id="mask8">
  <g filter="url(#alpha)">
<rect x="0" y="0" width="40" height="40" style="fill:rgb(0%,0%,0%);fill-opacity:0.1;stroke:none;"/>
  </g>
</mask>
<clipPath id="clip9">
  <rect x="0" y="0" width="40" height="40"/>
</clipPath>
<g id="surface29" clip-path="url(#clip9)">
<path style=" stroke:none;fill-rule:nonzero;fill:rgb(0%,0%,0%);fill-opacity:1;" d="M 18.316406 14.582031 C 17.382812 14.582031 14.695312 13.113281 14.167969 11.65625 C 14.167969 11.660156 14.167969 11.664062 14.167969 11.667969 C 14.167969 13.226562 17.320312 15 18.332031 15 C 18.824219 15 24.167969 13.144531 24.167969 11.667969 C 24.167969 11.632812 24.148438 11.609375 24.148438 11.578125 C 23.355469 13.003906 18.773438 14.582031 18.316406 14.582031 Z M 18.316406 14.582031 "/>
</g>
<linearGradient id="linear1" gradientUnits="userSpaceOnUse" x1="17.861504" y1="17.220039" x2="21.758766" y2="21.117302" gradientTransform="matrix(1.666667,0,0,1.666667,0,0)">
<stop offset="0" style="stop-color:rgb(0%,0%,0%);stop-opacity:0.1;"/>
<stop offset="1" style="stop-color:rgb(0%,0%,0%);stop-opacity:0;"/>
</linearGradient>
<linearGradient id="linear2" gradientUnits="userSpaceOnUse" x1="5.245053" y1="10.059656" x2="23.085646" y2="18.37886" gradientTransform="matrix(1.666667,0,0,1.666667,0,0)">
<stop offset="0" style="stop-color:rgb(100%,100%,100%);stop-opacity:0.2;"/>
<stop offset="1" style="stop-color:rgb(100%,100%,100%);stop-opacity:0;"/>
</linearGradient>
</defs>
<g id="surface1">
<path style=" stroke:none;fill-rule:nonzero;fill:rgb(10.196079%,10.196079%,10.196079%);fill-opacity:1;" d="M 32.800781 30.054688 C 33.164062 29.277344 33.332031 28.183594 33.332031 26.667969 C 33.332031 21.253906 30.839844 18.132812 28.839844 15.625 C 27.625 14.105469 26.667969 12.90625 26.667969 11.667969 L 26.667969 11.277344 C 26.679688 8.976562 26.707031 4.1875 24.164062 1.632812 C 23.089844 0.550781 21.6875 0 20 0 C 16.5 0 14.167969 1.699219 14.167969 10 C 14.167969 12.285156 13.207031 14.15625 12.1875 16.136719 C 11.742188 17.003906 11.28125 17.902344 10.894531 18.851562 C 10.125 20.746094 8.332031 25.378906 8.332031 27.5 C 8.332031 27.636719 8.367188 27.769531 8.429688 27.886719 L 14.328125 39.136719 C 14.453125 39.375 14.695312 39.535156 14.964844 39.570312 C 15 39.574219 15.035156 39.574219 15.066406 39.574219 C 15.304688 39.574219 15.535156 39.472656 15.695312 39.292969 C 16.066406 38.878906 18.519531 38.332031 20 38.332031 L 25.652344 38.332031 C 25.871094 38.332031 26.078125 38.25 26.234375 38.097656 L 33.082031 31.429688 C 33.410156 31.109375 33.417969 30.582031 33.097656 30.253906 C 33.011719 30.164062 32.910156 30.097656 32.800781 30.054688 Z M 32.800781 30.054688 "/>
<use xlink:href="#surface5" mask="url(#mask0)"/>
<path style=" stroke:none;fill-rule:nonzero;fill:rgb(0%,60.000002%,84.705883%);fill-opacity:1;" d="M 33.097656 30.667969 C 33.199219 30.773438 33.257812 30.902344 33.292969 31.039062 C 33.363281 30.765625 33.308594 30.46875 33.097656 30.253906 C 33.046875 30.199219 32.984375 30.171875 32.925781 30.136719 C 32.882812 30.25 32.847656 30.371094 32.800781 30.472656 C 32.910156 30.515625 33.011719 30.582031 33.097656 30.667969 Z M 33.097656 30.667969 "/>
<use xlink:href="#surface8" mask="url(#mask1)"/>
<path style=" stroke:none;fill-rule:nonzero;fill:rgb(0%,60.000002%,84.705883%);fill-opacity:1;" d="M 26.667969 11.667969 C 26.667969 11.667969 26.667969 11.671875 26.667969 11.675781 C 26.671875 11.390625 26.671875 11.070312 26.667969 10.714844 C 26.667969 10.90625 26.667969 11.113281 26.667969 11.277344 Z M 26.667969 11.667969 "/>
<path style=" stroke:none;fill-rule:nonzero;fill:rgb(100%,100%,100%);fill-opacity:1;" d="M 26.882812 28.019531 C 26.863281 23.960938 26.3125 19.398438 23.105469 12.84375 C 21.519531 13.917969 18.605469 14.765625 18.253906 14.765625 C 17.625 14.765625 16.246094 14.3125 15.234375 13.421875 C 14.820312 14.648438 14.242188 15.785156 13.671875 16.898438 C 13.242188 17.734375 12.796875 18.597656 12.4375 19.480469 C 11.433594 21.957031 10.28125 25.214844 10.050781 26.945312 C 10.753906 27.414062 11.246094 28.429688 11.789062 29.566406 C 12.351562 30.742188 12.988281 32.078125 13.808594 32.648438 C 15.3125 33.695312 16.089844 35.1875 16.296875 36.542969 C 16.867188 36.601562 17.585938 36.652344 18.40625 36.652344 C 20.441406 36.652344 23.195312 36.238281 25.234375 35 C 25.351562 32.796875 25.738281 29.257812 26.882812 28.019531 Z M 26.882812 28.019531 "/>
<path style=" stroke:none;fill-rule:nonzero;fill:rgb(0%,60.000002%,84.705883%);fill-opacity:1;" d="M 33.324219 26.941406 C 33.304688 28.308594 33.140625 29.324219 32.800781 30.054688 C 32.847656 30.074219 32.882812 30.113281 32.925781 30.136719 C 33.199219 29.386719 33.332031 28.402344 33.332031 27.082031 C 33.332031 27.03125 33.324219 26.992188 33.324219 26.941406 Z M 33.324219 26.941406 "/>
<use xlink:href="#surface11" mask="url(#mask2)"/>
<use xlink:href="#surface14" mask="url(#mask3)"/>
<path style=" stroke:none;fill-rule:nonzero;fill:rgb(99.215686%,70.980394%,8.235294%);fill-opacity:1;" d="M 34.878906 31.789062 C 34.53125 31.5625 34.175781 31.328125 33.921875 31.078125 C 33.773438 30.929688 33.84375 30.25 33.878906 29.882812 C 33.949219 29.179688 34.019531 28.453125 33.546875 27.933594 C 33.367188 27.734375 33.042969 27.5 32.5 27.5 C 32.054688 27.5 31.730469 27.851562 31.707031 28.296875 C 31.707031 28.308594 31.714844 28.320312 31.714844 28.332031 L 28.332031 28.332031 C 28.332031 27.871094 27.960938 27.5 27.5 27.5 C 25.027344 27.5 25 36.574219 24.988281 36.773438 C 24.945312 37.269531 24.835938 38.4375 25.582031 39.253906 C 26.03125 39.75 26.675781 40 27.5 40 C 29.664062 40 30.710938 38.886719 31.726562 37.808594 C 31.898438 37.625 32.070312 37.441406 32.253906 37.253906 C 32.679688 36.832031 33.503906 36.53125 34.234375 36.265625 C 35.429688 35.828125 36.667969 35.378906 36.667969 34.167969 C 36.667969 32.964844 35.675781 32.3125 34.878906 31.789062 Z M 34.878906 31.789062 "/>
<path style=" stroke:none;fill-rule:nonzero;fill:rgb(99.215686%,70.980394%,8.235294%);fill-opacity:1;" d="M 13.808594 32.648438 C 12.988281 32.078125 12.351562 30.742188 11.789062 29.566406 C 11.042969 28.011719 10.402344 26.667969 9.167969 26.667969 C 7.605469 26.667969 7.265625 28.066406 7.085938 28.820312 C 7.035156 29.027344 6.957031 29.339844 6.949219 29.378906 C 6.824219 29.453125 6.359375 29.546875 6.054688 29.605469 C 5.035156 29.808594 3.332031 30.144531 3.332031 31.667969 C 3.332031 32.109375 3.398438 32.484375 3.472656 32.875 C 3.601562 33.570312 3.722656 34.222656 3.359375 35.625 C 3.34375 35.691406 3.332031 35.761719 3.332031 35.832031 C 3.332031 37.835938 6.445312 38.097656 8.304688 38.25 C 8.613281 38.277344 8.871094 38.296875 9.035156 38.324219 C 9.292969 38.363281 9.828125 38.609375 10.347656 38.851562 C 11.460938 39.363281 12.84375 40 14.167969 40 C 15.117188 40 15.878906 39.386719 16.203125 38.355469 C 16.707031 36.75 16.039062 34.203125 13.808594 32.648438 Z M 13.808594 32.648438 "/>
<use xlink:href="#surface17" mask="url(#mask4)"/>
<path style=" stroke:none;fill-rule:nonzero;fill:rgb(10.196079%,10.196079%,10.196079%);fill-opacity:1;" d="M 32.5 25.832031 C 32.339844 25.832031 32.199219 25.890625 32.074219 25.96875 L 26.507812 16.863281 C 25.902344 15.144531 25.125 13.324219 24.074219 11.285156 C 23.863281 10.878906 23.363281 10.714844 22.953125 10.925781 C 22.542969 11.136719 22.382812 11.640625 22.59375 12.046875 C 26.355469 19.359375 26.667969 23.921875 26.667969 28.285156 C 26.660156 28.460938 26.597656 30.023438 27.496094 30.972656 C 27.925781 31.425781 28.503906 31.667969 29.167969 31.667969 L 29.460938 31.667969 C 29.554688 31.667969 29.648438 31.671875 29.746094 31.671875 C 30.589844 31.671875 31.507812 31.605469 32.226562 30.894531 C 32.992188 30.132812 33.332031 28.832031 33.332031 26.667969 C 33.332031 26.207031 32.960938 25.832031 32.5 25.832031 Z M 32.5 25.832031 "/>
<use xlink:href="#surface20" mask="url(#mask5)"/>
<path style=" stroke:none;fill-rule:nonzero;fill:rgb(100%,100%,100%);fill-opacity:1;" d="M 21.667969 5.070312 C 20.699219 5.070312 20 6.105469 20 7.535156 C 20 8.964844 20.699219 10 21.667969 10 C 22.632812 10 23.332031 8.964844 23.332031 7.535156 C 23.332031 6.105469 22.632812 5.070312 21.667969 5.070312 Z M 21.667969 5.070312 "/>
<path style=" stroke:none;fill-rule:nonzero;fill:rgb(0%,0%,0%);fill-opacity:1;" d="M 22.421875 8.148438 C 22.421875 8.964844 22.085938 9.628906 21.667969 9.628906 C 21.25 9.628906 20.910156 8.964844 20.910156 8.148438 C 20.910156 7.328125 21.25 6.667969 21.667969 6.667969 C 22.085938 6.667969 22.421875 7.328125 22.421875 8.148438 Z M 22.421875 8.148438 "/>
<path style=" stroke:none;fill-rule:nonzero;fill:rgb(100%,100%,100%);fill-opacity:1;" d="M 16.667969 5.070312 C 15.699219 5.070312 15 6.105469 15 7.535156 C 15 8.964844 15.699219 10 16.667969 10 C 17.632812 10 18.332031 8.964844 18.332031 7.535156 C 18.332031 6.105469 17.632812 5.070312 16.667969 5.070312 Z M 16.667969 5.070312 "/>
<path style=" stroke:none;fill-rule:nonzero;fill:url(#linear0);" d="M 23.003906 12.902344 C 21.398438 13.949219 18.597656 14.765625 18.253906 14.765625 C 17.625 14.765625 16.246094 14.3125 15.234375 13.421875 L 26.535156 24.722656 C 26.269531 21.496094 25.421875 17.828125 23.003906 12.902344 Z M 23.003906 12.902344 "/>
<path style=" stroke:none;fill-rule:nonzero;fill:rgb(0%,0%,0%);fill-opacity:1;" d="M 17.40625 8.117188 C 17.40625 8.917969 17.074219 9.570312 16.667969 9.570312 C 16.257812 9.570312 15.925781 8.917969 15.925781 8.117188 C 15.925781 7.316406 16.257812 6.667969 16.667969 6.667969 C 17.074219 6.667969 17.40625 7.316406 17.40625 8.117188 Z M 17.40625 8.117188 "/>
<path style=" stroke:none;fill-rule:nonzero;fill:rgb(99.215686%,70.980394%,8.235294%);fill-opacity:1;" d="M 19.332031 8.347656 C 19.277344 8.339844 19.222656 8.332031 19.167969 8.332031 C 17.375 8.332031 14.167969 10.015625 14.167969 11.667969 C 14.167969 13.226562 17.320312 15 18.332031 15 C 18.824219 15 24.167969 13.144531 24.167969 11.667969 C 24.167969 9.488281 20.464844 8.578125 19.332031 8.347656 Z M 19.332031 8.347656 "/>
<path style=" stroke:none;fill-rule:nonzero;fill:rgb(99.215686%,70.980394%,8.235294%);fill-opacity:1;" d="M 19.332031 8.347656 C 19.277344 8.339844 19.222656 8.332031 19.167969 8.332031 C 17.375 8.332031 14.167969 10.015625 14.167969 11.667969 C 14.167969 13.226562 17.320312 15 18.332031 15 C 18.824219 15 24.167969 13.144531 24.167969 11.667969 C 24.167969 9.488281 20.464844 8.578125 19.332031 8.347656 Z M 19.332031 8.347656 "/>
<use xlink:href="#surface23" mask="url(#mask6)"/>
<use xlink:href="#surface26" mask="url(#mask7)"/>
<use xlink:href="#surface29" mask="url(#mask8)"/>
<path style=" stroke:none;fill-rule:nonzero;fill:url(#linear1);" d="M 34.878906 31.789062 C 34.53125 31.5625 34.175781 31.328125 33.921875 31.078125 C 33.773438 30.929688 33.84375 30.25 33.878906 29.882812 C 33.949219 29.179688 34.019531 28.453125 33.546875 27.933594 C 33.484375 27.867188 33.390625 27.800781 33.285156 27.742188 C 33.179688 29.261719 32.851562 30.273438 32.226562 30.894531 C 31.507812 31.605469 30.589844 31.667969 29.746094 31.667969 C 29.648438 31.667969 29.554688 31.667969 29.460938 31.667969 L 29.167969 31.667969 C 28.503906 31.667969 27.925781 31.425781 27.496094 30.972656 L 33.199219 36.671875 C 33.53125 36.523438 33.890625 36.390625 34.234375 36.265625 C 35.429688 35.828125 36.667969 35.378906 36.667969 34.167969 C 36.667969 32.964844 35.675781 32.3125 34.878906 31.789062 Z M 34.878906 31.789062 "/>
<path style=" stroke:none;fill-rule:nonzero;fill:url(#linear2);" d="M 34.878906 31.789062 C 34.53125 31.5625 34.175781 31.328125 33.921875 31.078125 C 33.773438 30.929688 33.84375 30.25 33.878906 29.882812 C 33.949219 29.179688 34.019531 28.453125 33.546875 27.933594 C 33.488281 27.871094 33.386719 27.808594 33.300781 27.746094 C 33.320312 27.414062 33.332031 27.054688 33.332031 26.667969 C 33.332031 21.253906 30.839844 18.132812 28.839844 15.625 C 27.625 14.105469 26.667969 12.90625 26.667969 11.667969 L 26.667969 11.277344 C 26.679688 8.976562 26.707031 4.1875 24.164062 1.632812 C 23.089844 0.550781 21.6875 0 20 0 C 16.5 0 14.167969 1.699219 14.167969 10 C 14.167969 12.285156 13.207031 14.15625 12.1875 16.136719 C 11.742188 17.003906 11.28125 17.902344 10.894531 18.851562 C 10.195312 20.570312 8.671875 24.519531 8.390625 26.824219 C 7.492188 27.203125 7.230469 28.214844 7.085938 28.820312 C 7.035156 29.027344 6.957031 29.339844 6.949219 29.378906 C 6.824219 29.453125 6.359375 29.546875 6.054688 29.605469 C 5.035156 29.808594 3.332031 30.144531 3.332031 31.667969 C 3.332031 32.109375 3.398438 32.484375 3.472656 32.875 C 3.601562 33.570312 3.722656 34.222656 3.359375 35.625 C 3.34375 35.691406 3.332031 35.761719 3.332031 35.832031 C 3.332031 37.835938 6.445312 38.097656 8.304688 38.25 C 8.613281 38.277344 8.871094 38.296875 9.035156 38.324219 C 9.292969 38.363281 9.828125 38.609375 10.347656 38.851562 C 11.460938 39.363281 12.84375 40 14.167969 40 C 14.738281 40 15.222656 39.757812 15.601562 39.359375 C 15.632812 39.335938 15.667969 39.320312 15.695312 39.292969 C 16.066406 38.878906 18.519531 38.332031 20 38.332031 L 25.101562 38.332031 C 25.191406 38.65625 25.324219 38.976562 25.582031 39.253906 C 26.03125 39.75 26.675781 40 27.5 40 C 29.664062 40 30.710938 38.886719 31.726562 37.808594 C 31.898438 37.625 32.070312 37.441406 32.253906 37.253906 C 32.679688 36.832031 33.503906 36.53125 34.234375 36.265625 C 35.429688 35.828125 36.667969 35.378906 36.667969 34.167969 C 36.667969 32.964844 35.675781 32.3125 34.878906 31.789062 Z M 34.878906 31.789062 "/>
</g>
</svg>
