<?xml version="1.0" encoding="UTF-8"?>
<svg xmlns="http://www.w3.org/2000/svg" xmlns:xlink="http://www.w3.org/1999/xlink" width="40px" height="40px" viewBox="0 0 40 40" version="1.1">
<g id="surface1">
<path style=" stroke:none;fill-rule:evenodd;fill:rgb(3.921569%,40.000001%,76.078433%);fill-opacity:1;" d="M 9.070312 0 L 30.929688 0 C 35.894531 0.015625 39.914062 4.070312 39.929688 9.074219 L 39.929688 30.929688 C 39.914062 35.933594 35.890625 39.984375 30.929688 40 L 9.070312 40 C 4.109375 39.984375 0.0859375 35.933594 0.0703125 30.929688 L 0.0703125 9.074219 C 0.0859375 4.070312 4.105469 0.015625 9.070312 0 Z M 9.070312 0 "/>
<path style=" stroke:none;fill-rule:evenodd;fill:rgb(100%,100%,100%);fill-opacity:1;" d="M 16.027344 15.503906 L 21.0625 15.503906 L 21.0625 18.121094 L 21.136719 18.121094 C 21.839844 16.851562 23.550781 15.503906 26.109375 15.503906 C 31.429688 15.503906 32.410156 18.839844 32.410156 23.179688 L 32.410156 32.355469 L 27.160156 32.355469 L 27.160156 24.199219 C 27.160156 22.332031 27.121094 19.929688 24.429688 19.929688 C 21.734375 19.929688 21.273438 21.960938 21.273438 24.066406 L 21.273438 32.375 L 16.027344 32.375 Z M 13.046875 10.398438 C 13.046875 11.917969 11.824219 13.148438 10.3125 13.148438 C 8.804688 13.148438 7.582031 11.917969 7.582031 10.398438 C 7.582031 8.875 8.804688 7.644531 10.3125 7.644531 C 11.820312 7.644531 13.042969 8.875 13.046875 10.398438 Z M 7.589844 15.503906 L 13.046875 15.503906 L 13.046875 32.355469 L 7.589844 32.355469 Z M 7.589844 15.503906 "/>
</g>
</svg>
